<svg width="24" height="24" viewBox="0 0 24 24" fill="none" xmlns="http://www.w3.org/2000/svg">
<path d="M4 3H21V18.8C21 19.9201 21 20.4802 20.782 20.908C20.5903 21.2843 20.2843 21.5903 19.908 21.782C19.4802 22 18.9201 22 17.8 22H4V3Z" fill="#757575"/>
<path d="M17.8223 1C19.5367 1 20.3939 1 20.9102 1.36109C21.361 1.67639 21.662 2.16346 21.7425 2.70768C21.8345 3.33093 21.4512 4.09765 20.6845 5.63108L12.8845 21.2311C12.5634 21.8732 12.4029 22.1943 12.1634 22.4288C11.9516 22.6363 11.6963 22.794 11.4161 22.8907C11.0992 23 10.7402 23 10.0223 23H4.2C3.07989 23 2.51984 23 2.09202 22.782C1.71569 22.5903 1.40973 22.2843 1.21799 21.908C1 21.4802 1 20.9201 1 19.8V4.2C1 3.0799 1 2.51984 1.21799 2.09202C1.40973 1.71569 1.71569 1.40973 2.09202 1.21799C2.51984 1 3.0799 1 4.2 1H17.8223Z" fill="#353535"/>
<path fill-rule="evenodd" clip-rule="evenodd" d="M5 6C5 5.44772 5.44772 5 6 5H17C17.5523 5 18 5.44772 18 6C18 6.55228 17.5523 7 17 7H6C5.44772 7 5 6.55228 5 6ZM5 12C5 11.4477 5.44772 11 6 11H13C13.5523 11 14 11.4477 14 12C14 12.5523 13.5523 13 13 13H6C5.44772 13 5 12.5523 5 12ZM5 18C5 17.4477 5.44772 17 6 17H10C10.5523 17 11 17.4477 11 18C11 18.5523 10.5523 19 10 19H6C5.44772 19 5 18.5523 5 18Z" fill="white"/>
</svg>
