<svg fill="none" height="746" viewBox="0 0 800 746" width="800" xmlns="http://www.w3.org/2000/svg"><path d="m555.399 745.111s-395.775.912-502.54-152.639c-106.7681-153.55-36.5387-321.68 75.476-461.558 112.015-139.87627 204.802-159.1477 372.587-97.9487 167.786 61.1993 284.937 164.7087 298.557 342.7447 13.619 178.039-244.08 369.401-244.08 369.401z" fill="#c66cd7"/><path d="m140.223 122.256 596.225 72.827s-108.216-177.3285-378.854-193.39927c-148.65-8.82694-217.371 120.57227-217.371 120.57227z" fill="#442a43"/><path d="m265.333 275.028c80.633 0 146.002 65.365 146.002 145.998 0 80.636-65.369 146.002-146.002 146.002-80.635 0-146.001-65.366-146.001-146.002 0-80.633 65.366-145.998 146.001-145.998z" fill="#fdfdfd"/><path d="m470.403 299.785c59.207 0 107.2 47.995 107.2 107.199s-47.993 107.2-107.2 107.2c-59.204 0-107.196-47.996-107.196-107.2s47.992-107.199 107.196-107.199z" fill="#fdfdfd"/><g fill="#442a43"><path d="m312.191 299.603c20.68 0 37.447 16.767 37.447 37.45 0 20.681-16.767 37.447-37.447 37.447-20.683 0-37.45-16.766-37.45-37.447 0-20.683 16.767-37.45 37.45-37.45z"/><path d="m485.821 307.264c20.683 0 37.447 16.767 37.447 37.45 0 20.68-16.764 37.447-37.447 37.447-20.68 0-37.447-16.767-37.447-37.447 0-20.683 16.767-37.45 37.447-37.45z"/><path d="m685.907 546.93c-13.415 14.974-25.722 30.589-38.856 45.765z"/></g><path d="m470.491 617.53c-.758-.459-1.805-.19-2.263.567-3.374 5.582-7.978 10.573-12.727 14.993-8.313 7.73-18.224 13.891-29.231 16.875-12.612 3.422-25.927 2.387-38.657.191-17.041-2.939-34.116-8.132-50.068-14.897-.773-.328-1.654.076-1.979.848-.329.77-.019 1.654.754 1.98 17.593 7.443 36.554 12.983 55.439 15.65 11.71 1.656 23.751 2.046 35.265-1.035 12.437-3.328 23.586-10.346 32.719-19.331 4.164-4.098 8.174-8.657 11.218-13.671.462-.758.287-1.708-.47-2.17z" fill="#000"/><path d="m318.901 327.504c0-6.864 5.006-12.428 11.182-12.428s11.185 5.564 11.185 12.428-5.009 12.428-11.185 12.428-11.182-5.564-11.182-12.428z" fill="#fff"/><path d="m491.654 331.366c0-6.864 5.005-12.428 11.182-12.428 6.176 0 11.185 5.564 11.185 12.428s-5.009 12.428-11.185 12.428c-6.177 0-11.182-5.564-11.182-12.428z" fill="#fff"/></svg>