<svg fill="none" height="741" viewBox="0 0 800 741" width="800" xmlns="http://www.w3.org/2000/svg"><path d="m.777923 210.448c18.944277-151.2951 643.435077-287.6388 762.110077-159.6048 118.673 128.0338-68.755 674.8618-259.124 688.9058-190.368 14.041-521.9304-378.003-502.986077-529.301z" fill="#f9b309"/><path d="m150.373 214.353c0-75.486 62.611-136.683 139.85-136.683 77.236 0 139.851 61.197 139.851 136.683 0 75.488-62.615 136.682-139.851 136.682-77.239 0-139.85-61.194-139.85-136.682z" fill="#fdfdfd"/><path d="m373.7 191.424c0-75.488 62.615-136.6824 139.851-136.6824 77.238 0 139.85 61.1944 139.85 136.6824 0 75.486-62.612 136.68-139.85 136.68-77.236 0-139.851-61.194-139.851-136.68z" fill="#fdfdfd"/><path d="m325.873 261.517c22.43 0 40.611 18.126 40.611 40.482 0 22.357-18.181 40.482-40.611 40.482-22.428 0-40.609-18.125-40.609-40.482 0-22.356 18.181-40.482 40.609-40.482z" fill="#442a43"/><path d="m481.764 228.632c22.428 0 40.612 18.125 40.612 40.482 0 22.356-18.184 40.482-40.612 40.482-22.43 0-40.611-18.126-40.611-40.482 0-22.357 18.181-40.482 40.611-40.482z" fill="#442a43"/><g fill="#fff"><path d="m293.046 447.873c-1.721-.163-3.247 1.04-3.409 2.761-.095 1.01.324 1.847 1.013 2.487.215.371 1.194 1.367 1.291 1.473 1.382 1.538 2.87 3.047 4.326 4.511 5.979 6.006 12.438 11.478 19.339 16.393 2.575 1.833 4.947 3.498 7.644 5.157 2.817 1.735 5.616 3.276 8.563 4.788 9.385 4.812 19.407 8.354 29.835 10.036 22.454 3.625 45.913-1.921 67.037-9.208 6.84-2.36 13.535-4.942 20.168-7.826 2.858-1.244 5.746-2.532 8.563-3.869 1.688-.802 3.394-1.648 5.065-2.487.628-.316 1.217-.599 1.842-.92.589-.303 1.974-.734 2.393-1.29.506-.669 1.594-1.185 1.567-2.025-.047-1.282-1.078-2.407-1.75-3.498-.28-.453-2.163-.415-2.67-.462-.566-.053-1.187-.039-1.75-.092-2.036-.191-4.043-.45-6.079-.645-.902-.085-1.765-.097-2.67-.183-1.609-.153-3.271-.309-4.88-.462-1.411-.133-2.826-.324-4.237-.46-2.487-.236-4.971-.41-7.458-.642-8.569-.814-17.123-1.68-25.692-2.487-15.447-1.459-30.87-2.876-46.319-4.329-15.824-1.488-31.689-3.023-47.513-4.511-5.393-.507-10.726-.967-16.116-1.474-1.346-.127-.02.024-8.103-.736zm7.275 6.907c.059.003.121-.006.183 0 1.798.168 3.636.383 5.434.551 6.55.613 13.063 1.228 19.613 1.841 28.318 2.652 56.677 5.278 84.995 7.921 12.467 1.161 24.917 2.337 37.384 3.498 2.143.2 4.305.353 6.448.551-.372.177-.734.38-1.105.554-7.131 3.347-14.342 6.48-21.732 9.208-22.301 8.23-47.56 14.919-71.458 10.314-16.908-3.259-32.469-11.678-45.95-22.192-4.798-3.739-9.43-7.847-13.72-12.155-.033-.032-.062-.062-.092-.091z"/><path d="m297.455 286.98c0-6.704 4.888-12.138 10.92-12.138 6.035 0 10.923 5.434 10.923 12.138s-4.888 12.137-10.923 12.137c-6.032 0-10.92-5.433-10.92-12.137z"/><path d="m448.045 265.522c0-6.701 4.892-12.137 10.924-12.137s10.92 5.436 10.92 12.137c0 6.704-4.888 12.14-10.92 12.14s-10.924-5.436-10.924-12.14z"/></g></svg>