<svg fill="none" height="823" viewBox="0 0 800 823" width="800" xmlns="http://www.w3.org/2000/svg"><path d="m0 425.778c0-219.13 179.088-396.7723 400.004-396.7723 220.913 0 399.996 177.6423 399.996 396.7723 0 219.132-179.083 396.771-399.996 396.771-220.916 0-400.004-177.639-400.004-396.771z" fill="#91d04b"/><path d="m86.4473 301.84c0-95.448 80.4427-172.824 179.6747-172.824 99.23 0 179.672 77.376 179.672 172.824 0 95.449-80.442 172.825-179.672 172.825-99.232 0-179.6747-77.376-179.6747-172.825z" fill="#fff"/><path d="m137.34 291.836c0-20.918 15.676-37.874 35.013-37.874 19.334 0 35.01 16.956 35.01 37.874 0 20.915-15.676 37.871-35.01 37.871-19.337 0-35.013-16.956-35.013-37.871z" fill="#000"/><path d="m170.674 259.628c0-9.724 7.197-17.608 16.075-17.608 8.875 0 16.072 7.884 16.072 17.608s-7.197 17.608-16.072 17.608c-8.878 0-16.075-7.884-16.075-17.608z" fill="#fff"/><g fill="#000"><path d="m312.309 40.0092s88.468 81.0868 88.949 81.0798c.48-.008 181.7 10.888 181.7 10.888l124.808-14.504-117.48-87.2453s-139.44-30.2277-139.611-30.2277c-.173 0-139.031 44.8196-138.366 40.0092z"/><path d="m334.976 35.8815c-.17.4717-95.862-22.8804-96.025-23.0535-.166-.1707-33.796 46.2273-33.796 46.2273-18.223 29.2942 103.127 11.8693 103.127 11.8693"/></g></svg>