<svg fill="none" height="974" viewBox="0 0 800 974" width="800" xmlns="http://www.w3.org/2000/svg"><path d="m783.95 817.268c-90.604 205.432-663.035 208.772-763.2223 4.458-100.1872-204.312 186.0083-825.57079 362.4843-821.7080679 176.477 3.8627179 491.364 611.8220679 400.738 817.2500679z" fill="#f76341"/><path d="m197.475 347.917c0-164.514 82.876-297.878 185.111-297.878 102.232 0 185.11 133.364 185.11 297.878s-82.878 297.878-185.11 297.878c-102.235 0-185.111-133.364-185.111-297.878z" fill="#fdfdfd"/><path d="m266.07 320.964c0-84.02 66.088-152.129 147.611-152.129s147.609 68.109 147.609 152.129c0 84.019-66.086 152.129-147.609 152.129s-147.611-68.11-147.611-152.129z" fill="#442a43"/><path d="m111.358 665.618c-1.249-.079-2.318.864-2.394 2.113-.812 12.95-.23 26.083 1.127 38.97 1.355 12.892 3.691 25.943 8.456 38.05 4.327 10.998 11.094 21.952 21.986 27.414 12.341 6.187 27.298 4.6 40.307 1.691 14.797-3.308 29.086-8.986 42.774-15.433 10.844-5.11 21.562-10.72 31.709-17.124 1.118-.706 1.412-2.192.704-3.313-.706-1.116-2.192-1.409-3.311-.703-10.823 6.839-22.272 12.767-33.896 18.109-12.519 5.757-25.497 10.851-38.968 13.884-11.906 2.679-25.929 4.32-37.276-1.339-11.582-5.78-17.864-18.487-21.704-30.23-4.188-12.804-6.037-26.345-6.977-39.746-.697-9.942-.974-19.99-.352-29.948.079-1.249-.935-2.318-2.185-2.395z" fill="#000"/><path d="m480.61 263.332c0-14.779 11.155-26.758 24.915-26.758s24.915 11.979 24.915 26.758c0 14.776-11.155 26.757-24.915 26.757s-24.915-11.981-24.915-26.757z" fill="#fff"/></svg>