<svg fill="none" height="509" viewBox="0 0 800 509" width="800" xmlns="http://www.w3.org/2000/svg"><path d="m31.1574 347.053c-4.7037.168-9.229 1.611-13.419 5.049-1.7678 1.45-3.353 3.121-4.7725 4.911-3.12708 3.942-5.47749 8.511-7.40116 13.141-2.52172 6.074-4.46509 12.517-5.5334961 19.022-.2093879 1.282.6556091 2.488 1.9367261 2.698 1.28134.208 2.4883-.655 2.69769-1.936.99846-6.151 2.81146-12.245 5.18777-17.984 1.75257-4.234 3.93147-8.424 6.77827-12.037 1.4388-1.824 3.0382-3.526 4.9111-4.909 7.6495-5.655 17.3059-3.172 25.4541.137 11.9296 4.843 23.5362 12.603 33.4777 20.89.944.786 2.3256.598 3.1125-.347.7871-.943.6676-2.327-.2767-3.112-6.1782-5.151-12.8408-9.814-19.713-13.973-5.7176-3.458-11.6792-6.599-17.9838-8.854-4.8465-1.731-9.7527-2.866-14.4562-2.696z" fill="#000"/><path d="m766.489 207.954c-5.086.248-10.285 1.851-15.215 3.874-12.339 5.064-24.289 13.065-34.586 21.649-.943.788-1.131 2.169-.346 3.114.788.943 2.238 1.131 3.183.345 6.005-5.006 12.541-9.528 19.228-13.557 5.467-3.293 11.125-6.308 17.154-8.439 2.753-.972 5.558-1.742 8.44-2.214 8.481-1.383 14.867 2.349 19.781 9.062 2.964 4.048 5.084 8.67 6.848 13.349 1.906 5.053 3.491 10.356 4.358 15.702.208 1.281 1.417 2.147 2.696 1.936 1.282-.21 2.147-1.416 1.939-2.698-1.069-6.505-3.012-12.948-5.533-19.019-1.926-4.633-4.274-9.202-7.402-13.144-1.702-2.144-3.67-4.116-5.879-5.741-4.59-3.369-9.577-4.467-14.666-4.219z" fill="#000"/><path d="m408.644 482.584s-346.9224 84.514-357.5257-54.319c-10.6035-138.831 271.0377-427.814927 271.0377-427.814927s431.695 131.174927 442.299 270.007927c10.602 138.834-355.811 212.126-355.811 212.126z" fill="#626be0"/><path d="m319.987.436771c-14.819 10.728329-135.718 154.593229-129.268 152.605229 10.848-3.34 76.715-22.404 76.715-22.404l65.14 29.141 12.747-55.83 162.805 63.004-54.109-68.5246 87.551-15.3234s-211.3-90.10968-221.581-82.668229z" fill="#febb14"/><path d="m292.859 163.801c60.495 0 109.535 48.885 109.535 109.185v3.798c0 60.3-49.04 109.183-109.535 109.183-60.492 0-109.533-48.883-109.533-109.183v-3.798c0-60.3 49.041-109.185 109.533-109.185z" fill="#fdfdfd"/><path d="m537.086 198.977c50.514 0 91.464 40.819 91.464 91.174 0 50.353-40.95 91.172-91.464 91.172-50.517 0-91.467-40.819-91.467-91.172 0-50.355 40.95-91.174 91.467-91.174z" fill="#fdfdfd"/><path d="m280.628 301.515c16.848 0 30.505 13.614 30.505 30.407s-13.657 30.408-30.505 30.408c-16.846 0-30.505-13.615-30.505-30.408s13.659-30.407 30.505-30.407z" fill="#442a43"/><path d="m506.171 284.819c16.846 0 30.503 13.614 30.503 30.408 0 16.793-13.657 30.407-30.503 30.407-16.848 0-30.505-13.614-30.505-30.407 0-16.794 13.657-30.408 30.505-30.408z" fill="#442a43"/><g fill="#fff"><path d="m284.116 320.988c0-5.035 3.672-9.119 8.205-9.119 4.531 0 8.203 4.084 8.203 9.119 0 5.033-3.672 9.117-8.203 9.117-4.533 0-8.205-4.084-8.205-9.117z"/><path d="m508.281 301.557c0-5.036 3.674-9.117 8.205-9.117s8.203 4.081 8.203 9.117c0 5.035-3.672 9.117-8.203 9.117s-8.205-4.082-8.205-9.117z"/></g></svg>