<svg fill="none" height="785" viewBox="0 0 800 785" width="800" xmlns="http://www.w3.org/2000/svg"><path d="m448.516 697.917c-.646-.042-1.363.169-1.886.629-7.07 6.208-13.886 12.808-20.431 19.564-5.801 5.992-11.322 12.155-16.185 18.938-3.412 4.76-7.196 10.905-5.343 16.972 2.371 7.764 11.387 12.894 18.151 16.185 4.958 2.411 10.183 4.415 15.478 5.972 1.416.415 2.887-.393 3.302-1.808.412-1.416-.392-2.884-1.808-3.299-5.011-1.463-9.922-3.382-14.616-5.657-5.235-2.54-13.572-6.869-15.478-12.967-1.338-4.277 2.17-9.087 4.478-12.335.935-1.315 1.933-2.643 2.909-3.928.515-.681 1.031-1.3 1.569-1.966 9.338-11.523 20.21-22.028 31.351-31.821 1.049-.921 1.157-2.565.237-3.614-.461-.525-1.084-.822-1.728-.865z" fill="#000"/><path d="m341.656 706.089c-.646.043-1.27.339-1.73.865-.92 1.048-.814 2.615.237 3.535 10.273 9.027 20.207 18.664 29.07 29.074 3.337 3.914 6.503 7.975 9.115 12.413 2.912 4.943 3.497 8.828-.784 13.122-1.459 1.461-3.013 2.759-4.715 3.928-2.484 1.705-5.152 3.165-7.857 4.48-4.695 2.276-9.605 4.194-14.616 5.658-1.416.412-2.22 1.883-1.805 3.298.412 1.416 1.883 2.223 3.298 1.808 6.062-1.782 12.006-4.146 17.601-7.073 2.901-1.516 5.738-3.253 8.327-5.265 1.851-1.435 3.596-3.009 5.029-4.87 5.403-7.007 2.897-13.459-1.491-20.193-2.441-3.746-5.26-7.299-8.172-10.686-9.069-10.55-19.242-20.285-29.702-29.465-.523-.461-1.161-.672-1.805-.629z" fill="#000"/><path d="m288.45 14.1463c-101.684 42.7726-305.7423 525.5477-287.27639 623.1857 25.14729 132.966 724.53439 92.171 791.37139-62.032 66.836-154.205-333.149-633.0612-504.095-561.1537z" fill="#46aa9e"/><path d="m124.263 249.442s70.852 11.725 118.302-20.673c47.448-32.397 54.871-75.012 129.24-102.536 74.37-27.5248 168.238-7.562 168.238-7.562s-137.608-147.7213-239.919-113.53719c-102.314 34.18389-175.861 244.30819-175.861 244.30819z" fill="#febb14"/><path d="m490.194 223.228c82.332 0 149.078 63.218 149.078 141.203v1.987c0 77.985-66.746 141.206-149.078 141.206-82.335 0-149.081-63.221-149.081-141.206v-1.987c0-77.985 66.746-141.203 149.081-141.203z" fill="#fdfdfd"/><path d="m424.821 379.666h6.419c20.494 0 37.109 15.792 37.109 35.276s-16.615 35.277-37.109 35.277h-6.419c-20.497 0-37.112-15.793-37.112-35.277s16.615-35.276 37.112-35.276z" fill="#442a43"/><path d="m283.431 318.358c54.672 0 98.993 41.98 98.993 93.763s-44.321 93.763-98.993 93.763c-54.669 0-98.99-41.98-98.99-93.763s44.321-93.763 98.99-93.763z" fill="#fdfdfd"/><path d="m279.602 396.311h6.419c20.497 0 37.112 15.795 37.112 35.276 0 19.484-16.615 35.279-37.112 35.279h-6.419c-20.495 0-37.112-15.795-37.112-35.279 0-19.481 16.617-35.276 37.112-35.276z" fill="#442a43"/><g fill="#fff"><path d="m427.264 406.119c0-5.72 4.172-10.356 9.319-10.356 5.149 0 9.32 4.636 9.32 10.356 0 5.721-4.171 10.357-9.32 10.357-5.147 0-9.319-4.636-9.319-10.357z"/><path d="m286.355 422.008c0-5.721 4.172-10.357 9.321-10.357 5.147 0 9.318 4.636 9.318 10.357 0 5.72-4.171 10.356-9.318 10.356-5.149 0-9.321-4.636-9.321-10.356z"/></g></svg>